<?xml version="1.0" standalone="no"?>
<!DOCTYPE svg PUBLIC "-//W3C//DTD SVG 20010904//EN"
 "http://www.w3.org/TR/2001/REC-SVG-20010904/DTD/svg10.dtd">
<svg version="1.0" xmlns="http://www.w3.org/2000/svg"
 width="291.000000pt" height="379.000000pt" viewBox="0 0 291.000000 379.000000"
 preserveAspectRatio="xMidYMid meet">

<g transform="translate(0.000000,379.000000) scale(0.100000,-0.100000)"
fill="#000000" stroke="none">
<path d="M1629 3216 c-43 -30 -68 -78 -79 -154 -14 -91 -37 -237 -60 -372 -22
-133 -67 -412 -76 -470 -6 -45 -24 -90 -35 -90 -5 0 -10 1 -10 3 -1 1 -7 175
-13 387 -11 375 -12 386 -34 417 -29 41 -81 73 -118 73 -16 0 -46 -11 -66 -25
-57 -39 -66 -78 -72 -320 -4 -115 -11 -299 -17 -408 -6 -109 -8 -204 -6 -212
4 -9 37 -15 109 -19 57 -4 132 -11 168 -16 36 -5 117 -16 180 -25 288 -38 302
-43 315 -97 6 -21 1 -33 -20 -54 l-27 -27 -142 6 c-161 6 -206 -4 -206 -46 0
-14 13 -37 33 -55 35 -34 251 -216 356 -300 83 -67 110 -109 93 -146 -9 -21
-18 -26 -49 -26 -45 0 -58 8 -223 135 -69 52 -127 90 -129 84 -2 -6 0 -14 5
-18 8 -5 69 -71 269 -289 85 -92 97 -140 45 -167 -26 -14 -33 -14 -58 -1 -24
12 -122 113 -297 304 -47 51 -65 63 -65 41 0 -6 51 -82 113 -168 102 -142 137
-198 137 -220 0 -12 -33 -47 -50 -53 -31 -11 -76 32 -202 197 -158 205 -146
192 -153 173 -4 -9 15 -59 40 -113 67 -139 76 -167 60 -188 -17 -24 -58 -21
-82 6 -11 12 -60 83 -108 157 -279 428 -639 923 -704 967 -42 29 -92 29 -147
2 -34 -16 -46 -29 -60 -64 -20 -55 -15 -78 40 -175 76 -133 425 -721 504 -848
169 -273 318 -378 583 -414 108 -14 254 0 351 33 182 63 298 203 377 454 37
118 31 97 116 400 86 305 81 291 204 625 90 241 94 259 82 301 -13 45 -58 79
-103 79 -62 0 -83 -25 -185 -225 -132 -259 -138 -270 -160 -270 -31 0 -26 37
37 270 18 66 36 136 40 155 5 19 16 62 25 95 9 33 20 76 25 95 4 19 20 80 34
135 28 109 31 149 16 190 -37 98 -175 114 -235 28 -13 -19 -75 -215 -145 -458
-59 -205 -93 -311 -104 -323 -11 -11 -15 -11 -24 0 -8 10 -7 42 4 123 8 61 19
139 24 175 5 36 16 115 25 175 9 61 20 137 25 170 4 33 15 113 24 178 18 129
17 142 -21 187 -53 63 -115 76 -174 36z"/>
</g>
</svg>
